{"title":"U-Carmen.eKhayelitsha.2005.DVDRip.x264.mkv","uid":14889220,"size":2347495400,"categoryP":"video","categoryS":"movies","magnet":"?xt=urn:btih:3845f4a10fccf2d3c9b6d1d6408789a4b4c5459b&amp;dn=U-Carmen.eKhayelitsha.2005.DVDRip.x264.mkv&amp;tr=udp%3A%2F%2Ftracker.leechers-paradise.org%3A6969&amp;tr=udp%3A%2F%2Fzer0day.ch%3A1337&amp;tr=udp%3A%2F%2Fopen.demonii.com%3A1337&amp;tr=udp%3A%2F%2Ftracker.coppersurfer.tk%3A6969&amp;tr=udp%3A%2F%2Fexodus.desync.com%3A6969","seeders":2,"leechers":0,"uploader":"Aaaameida","files":1,"time":1465757684,"description":"A version of Georges Bizet's Carmen, set in a modern-day South African township.\r\nU-Carmen eKhayelitsha is the winner of the Golden Bear for Best Film at the 2005 Berlin International Film Festival.\r\n \r\nLanguage: Xhosa | English\r\n\r\nSubtitles: English\r\n  \nhttp://www.imdb.com/title/tt0445776/\r\n\r\nGeneral\r\nUnique ID : 336763468851980828747854404129215380331 (0xFD5A48EE249FF51E81EF726B62CE7B6B)\r\nComplete name : U-Carmen.eKhayelitsha.2005.DVDRip.x264.mkv\r\nFormat : Matroska\r\nFormat version : Version 2\r\nFile size : 2.19 GiB\r\nDuration : 2h 7mn\r\nOverall bit rate : 2 455 Kbps\r\nWriting application : HandBrake 0.10.0 2014112200\r\nWriting library : Lavf55.12.0\r\n\r\nVideo\r\nID : 1\r\nFormat : AVC\r\nFormat/Info : Advanced Video Codec\r\nFormat profile :   \r\nFormat settings, CABAC : Yes\r\nFormat settings, ReFrames : 9 frames\r\nFormat settings, GOP : M=6, N=12\r\nCodec ID : V_MPEG4/ISO/AVC\r\nDuration : 2h 7mn\r\nBit rate : 2 214 Kbps\r\nWidth : 720 pixels\r\nHeight : 458 pixels\r\nDisplay aspect ratio : 1.85:1\r\nOriginal display aspect ratio : 1.85:1\r\nFrame rate mode : Constant\r\nFrame rate : 23.976 fps\r\nColor space : YUV\r\nChroma subsampling : 4:2:0\r\nBit depth : 8 bits\r\nScan type : Progressive\r\nBits/(Pixel*Frame) : 0.280\r\nStream size : 1.97 GiB (90%)\r\nWriting library : x264 core 142 r2479 dd79a61\r\nEncoding settings : cabac=1 / ref=9 / deblock=1:-2:-2 / analyse=0x3:0x133 / me=umh / subme=9 / psy=1 / psy_rd=1.00:0.00 / mixed_ref=1 / me_range=24 / chroma_me=1 / trellis=2 / 8x8dct=1 / cqm=0 / deadzone=21,11 / fast_pskip=0 / chroma_qp_offset=-2 / threads=12 / lookahead_threads=1 / sliced_threads=0 / nr=0 / decimate=1 / interlaced=0 / bluray_compat=0 / constrained_intra=0 / bframes=6 / b_pyramid=2 / b_adapt=2 / b_bias=0 / direct=3 / weightb=1 / open_gop=0 / weightp=2 / keyint=240 / keyint_min=24 / scenecut=40 / intra_refresh=0 / rc_lookahead=50 / rc=crf / mbtree=1 / crf=19.0 / qcomp=0.60 / qpmin=0 / qpmax=69 / qpstep=4 / ip_ratio=1.40 / aq=1:1.20\r\nDefault : Yes\r\nForced : No\r\nColor primaries : BT.601 NTSC\r\nTransfer characteristics : BT.709\r\nMatrix coefficients : BT.601\r\nColor range : Limited\r\n\r\nAudio\r\nID : 2\r\nFormat : AC-3\r\nFormat/Info : Audio Coding 3\r\nMode extension : CM (complete main)\r\nFormat settings, Endianness : Big\r\nCodec ID : A_AC3\r\nDuration : 2h 7mn\r\nBit rate mode : Constant\r\nBit rate : 192 Kbps\r\nChannel(s) : 2 channels\r\nChannel positions : Front: L R\r\nSampling rate : 48.0 KHz\r\nBit depth : 16 bits\r\nCompression mode : Lossy\r\nStream size : 175 MiB (8%)\r\nTitle : Stereo\r\nLanguage : Xhosa\r\nDefault : Yes\r\nForced : No\r\n\r\nText\r\nID : 3\r\nFormat : VobSub\r\nCodec ID : S_VOBSUB\r\nCodec ID/Info : The same subtitle format used on DVDs\r\nLanguage : English\r\nDefault : No\r\nForced : No\r\n\r\nMenu\r\n00:00:00.000 : :Chapter 1\r\n00:10:08.733 : :Chapter 2\r\n00:14:30.995 : :Chapter 3\r\n00:20:36.235 : :Chapter 4\r\n00:29:10.749 : :Chapter 5\r\n00:38:27.180 : :Chapter 6\r\n00:53:58.527 : :Chapter 7\r\n01:07:16.658 : :Chapter 8\r\n01:17:02.660 : :Chapter 9\r\n01:27:55.812 : :Chapter 10\r\n01:41:49.979 : :Chapter 11\r\n02:03:54.552 : :Chapter 12","torrent":{"xt":"urn:btih:3845f4a10fccf2d3c9b6d1d6408789a4b4c5459b","amp;dn":"U-Carmen.eKhayelitsha.2005.DVDRip.x264.mkv","amp;tr":["udp%3A%2F%2Ftracker.leechers-paradise.org%3A6969","udp%3A%2F%2Fzer0day.ch%3A1337","udp%3A%2F%2Fopen.demonii.com%3A1337","udp%3A%2F%2Ftracker.coppersurfer.tk%3A6969","udp%3A%2F%2Fexodus.desync.com%3A6969"],"infoHash":"3845f4a10fccf2d3c9b6d1d6408789a4b4c5459b","infoHashBuffer":{"type":"Buffer","data":[56,69,244,161,15,204,242,211,201,182,209,214,64,135,137,164,180,197,69,155]},"announce":[],"urlList":[]}}